<svg width="24" height="24" viewBox="0 0 24 24" fill="none" xmlns="http://www.w3.org/2000/svg">
<path fill-rule="evenodd" clip-rule="evenodd" d="M3.72019 18.84H20.2802V18.12C20.2802 17.7224 19.9578 17.4 19.5602 17.4V11.64H19.5619C19.9589 11.639 20.2802 11.317 20.2802 10.92V9.99645C20.2803 9.67 20.1327 9.36102 19.8786 9.156L12.4439 3.15328C12.1834 2.94891 11.817 2.94891 11.5564 3.15328L4.12173 9.156C3.86768 9.36102 3.72006 9.67 3.72019 9.99645V10.92C3.72019 11.317 4.04149 11.639 4.43846 11.64H4.44019V17.4C4.04254 17.4 3.72019 17.7224 3.72019 18.12V18.84ZM20.28 20.9999C20.6776 20.9999 21 20.6775 21 20.2799C21 19.8822 20.6776 19.5599 20.28 19.5599H3.72C3.32235 19.5599 3 19.8822 3 20.2799C3 20.6775 3.32235 20.9999 3.72 20.9999H20.28ZM8.7599 11.6399H6.5999V17.3999H8.7599V11.6399ZM10.92 11.6399H13.08V17.3999H10.92V11.6399ZM13.08 6.2403C13.08 5.64383 12.5964 5.1603 12 5.1603C11.4035 5.1603 10.92 5.64383 10.92 6.2403C10.92 6.83677 11.4035 7.3203 12 7.3203C12.5964 7.3203 13.08 6.83677 13.08 6.2403ZM15.2398 11.6399H17.3998V17.3999H15.2398V11.6399Z" fill="#333333"/>
</svg>
