<svg width="24" height="24" viewBox="0 0 24 24" fill="none" xmlns="http://www.w3.org/2000/svg">
<path fill-rule="evenodd" clip-rule="evenodd" d="M14.087 5.69565H9.91309C9.72099 5.69565 9.56526 5.53993 9.56526 5.34783C9.56526 5.15573 9.72099 5 9.91309 5H14.087C14.2791 5 14.4348 5.15573 14.4348 5.34783C14.4348 5.53993 14.2791 5.69565 14.087 5.69565ZM20 7.08685V18.9129C20 19.2971 19.6885 19.6086 19.3043 19.6086H4.69565C4.31145 19.6086 4 19.2971 4 18.9129V7.08685C4 6.70265 4.31145 6.3912 4.69565 6.3912H19.3043C19.6885 6.3912 20 6.70265 20 7.08685ZM11.9999 9.86955C11.4236 9.86955 10.9565 10.3367 10.9565 10.913C10.9571 11.4891 11.4239 11.9559 11.9999 11.9565C12.5762 11.9565 13.0434 11.4893 13.0434 10.913C13.0434 10.3367 12.5762 9.86955 11.9999 9.86955ZM9.58999 16.1303C9.76442 14.9332 10.7902 14.0449 12 14.0434C13.2098 14.0449 14.2356 14.9332 14.41 16.1303H9.58999ZM11.9999 12.6523C11.0394 12.6523 10.2607 11.8737 10.2607 10.9132C10.2607 9.9527 11.0394 9.17407 11.9999 9.17407C12.9604 9.17407 13.739 9.9527 13.739 10.9132C13.739 11.8737 12.9604 12.6523 11.9999 12.6523ZM15.1304 16.4781C15.1304 14.7492 13.7289 13.3477 12 13.3477C10.2711 13.3477 8.86955 14.7492 8.86955 16.4781C8.87457 16.5946 8.88618 16.7107 8.90433 16.8259H15.0956C15.1138 16.7107 15.1254 16.5946 15.1304 16.4781Z" fill="#333333"/>
</svg>
