<svg width="24" height="24" viewBox="0 0 24 24" fill="none" xmlns="http://www.w3.org/2000/svg">
<path fill-rule="evenodd" clip-rule="evenodd" d="M19.2801 9.44V19.98C19.2795 20.5431 18.8232 20.9994 18.2601 21H6.02008C5.457 20.9994 5.00068 20.5431 5.00008 19.98V5.02C5.00068 4.45692 5.457 4.0006 6.02008 4H13.8236L13.8372 8.42401C13.8404 8.98545 14.296 9.43915 14.8574 9.44H19.2801ZM14.5174 8.42145L14.5042 4.20199L18.9813 8.68108C19.0042 8.70631 19.0259 8.73268 19.0462 8.76009H14.8574C14.6702 8.75983 14.5184 8.60858 14.5174 8.42145ZM12.1403 14.1999C12.6932 14.1999 13.1603 13.577 13.1603 12.8399C13.1603 12.1028 12.6932 11.4799 12.1403 11.4799C11.5874 11.4799 11.1203 12.1028 11.1203 12.8399C11.1203 13.577 11.5874 14.1999 12.1403 14.1999ZM9.78456 16.9198C9.95509 15.7496 10.9578 14.8813 12.1403 14.8798C13.3229 14.8813 14.3255 15.7496 14.4961 16.9198H9.78456ZM13.2181 14.4052C14.4087 14.8513 15.1982 15.9884 15.2001 17.2597C15.2001 17.4475 15.0479 17.5997 14.8601 17.5997H9.42014C9.23237 17.5997 9.08014 17.4475 9.08014 17.2597C9.08206 15.9884 9.8716 14.8513 11.0621 14.4052C10.6555 13.9865 10.4318 13.4234 10.4401 12.8397C10.3551 11.8097 11.1117 10.9018 12.1401 10.7997C13.1686 10.9018 13.9252 11.8097 13.8401 12.8397C13.8485 13.4234 13.6248 13.9865 13.2181 14.4052Z" fill="#333333"/>
</svg>
