<svg width="24" height="24" viewBox="0 0 24 24" fill="none" xmlns="http://www.w3.org/2000/svg">
<path fill-rule="evenodd" clip-rule="evenodd" d="M22.8333 6.66658V17.9166C22.8333 18.1467 22.6467 18.3332 22.4166 18.3332C22.1865 18.3332 21.9999 18.1467 21.9999 17.9166V6.66658C21.9995 6.20653 21.6266 5.8337 21.1666 5.83324H4.08327C3.85315 5.83324 3.6666 5.64669 3.6666 5.41658C3.6666 5.18646 3.85315 4.99991 4.08327 4.99991H21.1666C22.0866 5.00096 22.8322 5.74654 22.8333 6.66658ZM21.1667 7.49984V19.1665C21.1667 19.6267 20.7936 19.9998 20.3333 19.9998H2.83333C2.3731 19.9998 2 19.6267 2 19.1665V7.49984C2 7.0396 2.3731 6.66651 2.83333 6.66651H20.3333C20.7936 6.66651 21.1667 7.0396 21.1667 7.49984ZM5.74993 9.16662C5.98005 9.16662 6.1666 9.35317 6.1666 9.58328C6.1666 9.8134 5.98005 9.99995 5.74993 9.99995H4.08327C3.85315 9.99995 3.6666 9.8134 3.6666 9.58328C3.6666 9.35317 3.85315 9.16662 4.08327 9.16662H5.74993ZM14.5 13.3333C14.6072 11.61 13.3055 10.1224 11.5833 9.99992C9.8611 10.1224 8.55943 11.61 8.66664 13.3333C8.55947 15.0565 9.86112 16.5441 11.5833 16.6666C13.3055 16.5441 14.6071 15.0565 14.5 13.3333ZM19.0834 16.6665C19.3135 16.6665 19.5 16.8531 19.5 17.0832C19.5 17.3133 19.3135 17.4999 19.0834 17.4999H17.4167C17.1866 17.4999 17 17.3133 17 17.0832C17 16.8531 17.1866 16.6665 17.4167 16.6665H19.0834Z" fill="#333333"/>
</svg>
