<svg width="24" height="24" viewBox="0 0 24 24" fill="none" xmlns="http://www.w3.org/2000/svg">
<path fill-rule="evenodd" clip-rule="evenodd" d="M19.1096 10.7751L20.5073 11.1756C20.799 11.2592 21 11.5258 21 11.8292V13.1707C21 13.4741 20.799 13.7407 20.5073 13.8243L19.1102 14.2247C19.0015 14.2565 18.9165 14.3415 18.8846 14.4501C18.7601 14.8607 18.5962 15.2582 18.395 15.6371C18.341 15.7362 18.3412 15.856 18.3956 15.9549L19.097 17.2194C19.2442 17.4847 19.1978 17.8155 18.9833 18.0301L18.03 18.9834C17.8154 19.198 17.4846 19.2444 17.2192 19.0972L15.9549 18.3957C15.856 18.3413 15.7362 18.341 15.6371 18.395C15.2582 18.5962 14.8607 18.7602 14.4502 18.8846C14.3415 18.9165 14.2566 19.0015 14.2248 19.1102L13.8244 20.5073C13.7408 20.799 13.4741 21 13.1707 21H11.8292C11.5259 21 11.2593 20.7991 11.1756 20.5076L10.775 19.1102C10.7432 19.0015 10.6582 18.9165 10.5495 18.8846C10.139 18.7602 9.74164 18.5962 9.36289 18.395C9.26377 18.341 9.14396 18.3412 9.04506 18.3956L7.78066 19.097C7.51529 19.2442 7.18447 19.1978 6.9699 18.9832L6.01668 18.0299C5.8021 17.8153 5.75565 17.4846 5.90284 17.2192L6.60447 15.9551C6.65882 15.8563 6.65915 15.7367 6.60535 15.6376C6.40421 15.2586 6.24025 14.861 6.11575 14.4504C6.08393 14.3416 5.99888 14.2566 5.89013 14.2248L4.49266 13.8243C4.201 13.7407 4 13.474 4 13.1706V11.8292C3.99998 11.5258 4.20092 11.2591 4.49252 11.1755L5.88965 10.7752C5.99833 10.7434 6.08335 10.6584 6.11528 10.5498C6.23963 10.1393 6.4036 9.74189 6.60488 9.36316C6.659 9.26406 6.65882 9.1442 6.6044 9.04526L5.90284 7.7808C5.75549 7.51539 5.80192 7.18446 6.01661 6.96983L6.97004 6.01661C7.18461 5.80199 7.51542 5.75555 7.7808 5.90278L9.04506 6.60447C9.14395 6.65888 9.26376 6.65914 9.36289 6.60515C9.74167 6.40393 10.1391 6.23996 10.5496 6.11555C10.6583 6.08365 10.7432 5.99863 10.7751 5.88992L11.1755 4.49266C11.2591 4.201 11.5258 4 11.8292 4H13.1708C13.4742 4 13.7409 4.201 13.8245 4.49266L14.2249 5.88979C14.2567 5.99843 14.3415 6.08345 14.4501 6.11541C14.8607 6.23985 15.2582 6.40382 15.637 6.60501C15.7361 6.65907 15.8559 6.65884 15.9548 6.6044L17.2192 5.90278C17.4846 5.75546 17.8155 5.80188 18.0301 6.01654L18.9834 6.97004C19.198 7.18463 19.2444 7.51544 19.0972 7.7808L18.3954 9.04472C18.341 9.14347 18.3406 9.26313 18.3944 9.36221C18.5956 9.74126 18.7595 10.1389 18.884 10.5496C18.9159 10.6583 19.0009 10.7433 19.1096 10.7751ZM9.44012 12.5001C9.44012 14.1901 10.8101 15.5601 12.5001 15.5601C13.3117 15.5601 14.09 15.2377 14.6639 14.6639C15.2377 14.09 15.5601 13.3117 15.5601 12.5001C15.5601 10.8101 14.1901 9.44012 12.5001 9.44012C10.8101 9.44012 9.44012 10.8101 9.44012 12.5001Z" fill="#333333"/>
</svg>
